<?xml version="1.0" encoding="utf-8"?>
<!-- Generator: Adobe Illustrator 19.2.1, SVG Export Plug-In . SVG Version: 6.00 Build 0)  -->
<svg version="1.1" id="Layer_1" xmlns="http://www.w3.org/2000/svg" xmlns:xlink="http://www.w3.org/1999/xlink" x="0px" y="0px"
	 viewBox="0 0 280 150" style="enable-background:new 0 0 280 150;" xml:space="preserve">
<style type="text/css">
	.st0{fill:#242122;}
	.st1{fill:#262223;}
	.st2{fill:#F9BD17;}
	.st3{fill:#F8BE1A;}
	.st4{fill:#FFCF45;}
	.st5{fill:#D94638;}
	.st6{fill:#5C83C3;}
	.st7{fill:#625F5E;}
	.st8{fill:#EFEEEE;}
	.st9{fill:#FFFFFF;}
	.st10{fill:#0195C8;}
	.st11{fill:#0295C8;}
</style>
<g>
	<polygon class="st10" points="69.5,75.9 47.3,75.9 47.3,56.1 69.5,51.8 	"/>
	<polygon class="st10" points="107.4,75.9 71.8,75.9 71.8,51.5 107.4,44.2 	"/>
	<polygon class="st10" points="107.4,78.7 71.8,78.7 71.8,103.1 107.4,110.3 	"/>
	<polygon class="st10" points="69.5,78.7 47.3,78.7 47.3,98.3 69.5,102.6 	"/>
	<path class="st11" d="M141.9,101.7c-1.5,0.4-2-0.2-2.3-1.2c-0.5-1.5-0.7-3.5-1.9-4.3c-1.2-0.8-3.1-0.2-4.7-0.2
		c-4.1,0-4.2,0-5.8,4.2c-0.5,1.3-1.1,1.9-2.6,1.7c-1.3-0.1-0.8-0.7-0.5-1.3c2-4.7,4-9.3,5.9-14c0.4-0.9,0.8-1.8,1.2-2.7
		c0.7-1.7,1.5-2.1,3.3-1.7c0.6,0.1,0.7,0.5,0.9,1c2.5,5.9,4.9,11.7,7.5,17.6C143.6,102.5,142.1,101.6,141.9,101.7z M133.4,84.5
		c-1.2,3.1-2.2,5.7-3.3,8.3c-0.2,0.6-0.3,1,0.5,1c1.8,0,3.6,0,5.4,0c0.6,0,0.8-0.2,0.6-0.8C135.6,90.3,134.6,87.6,133.4,84.5z"/>
	<path class="st11" d="M192.7,95.5c-1.5,0-3,0-4.5,0c-1.1,0-1.4,0.3-1.1,1.4c0.4,1.7,1.7,2.9,3.6,3.2c2.2,0.4,3.9-0.2,4.7-1.8
		c0.5-1,1.2-0.9,2-0.9c0.6,0,0.8,0.2,0.6,0.9c-0.6,1.6-1.7,2.7-3.2,3.4c-5.6,2.3-10.8-1.5-10.4-7.4c0.3-4.1,3.3-7,7.3-6.9
		c3.8,0,6.6,3,6.8,7.1c0,0.9-0.2,1.2-1.1,1.2C195.8,95.4,194.2,95.5,192.7,95.5z M191.2,93.5c1.2,0,2.4,0,3.6,0
		c0.9,0.1,1-0.4,0.8-1.1c-0.5-1.7-2.3-3.1-4.2-3.1c-2,0-3.8,1.3-4.3,3.2c-0.2,0.7-0.2,1.1,0.7,1C188.9,93.4,190.1,93.5,191.2,93.5z"
		/>
	<path class="st11" d="M126.3,55.3c0,5.1,0,10.2,0,15.4c0,0.4,0,0.8,0,1.2c0,0.5-0.1,0.8-0.7,0.8c-0.5,0-0.6-0.3-0.6-0.7
		c0-0.2,0-0.4,0-0.6c0-5.7,0-11.3,0-17c0-0.5-0.4-1.2,0.6-1.3c0.8-0.1,1.3,0.1,1.7,0.9c2.4,5.4,4.8,10.7,7.3,16
		c0.2,0.4,0.4,0.7,0.7,1.3c1-2.2,1.9-4.2,2.8-6.3c1.6-3.6,3.2-7.2,4.8-10.8c0.2-0.5,0.3-1.2,1.2-1.2c0.8,0,1.2,0.1,1.2,1.1
		c0,5.8,0,11.6,0,17.4c0,0.5,0.2,1.1-0.6,1.1c-0.9,0-0.6-0.7-0.6-1.1c0-5.2,0-10.4,0-15.6c0-0.2,0-0.5,0-0.8
		c-0.6,0.3-0.6,0.8-0.8,1.2c-2.2,5-4.4,9.9-6.7,14.9c-0.3,0.6-0.3,1.5-1.3,1.5c-1,0-1-0.9-1.3-1.5c-2.2-4.8-4.3-9.5-6.5-14.3
		c-0.3-0.6-0.5-1.1-0.8-1.6C126.5,55.3,126.4,55.3,126.3,55.3z"/>
	<path class="st11" d="M169.3,99.8c-2,2.2-4.1,2.7-6.5,2.2c-2.4-0.4-3.6-1.6-3.8-4c-0.2-3.2-0.1-6.4-0.1-9.6c0-1.2,0.9-0.7,1.5-0.8
		c0.8-0.1,1.1,0.2,1.1,1c0,2.5,0,5.1,0,7.6c0,2.7,0.9,3.8,3,4c2.5,0.1,4.6-1.5,4.7-4c0.1-2.4,0.1-4.9,0-7.3c0-0.9,0.1-1.4,1.2-1.4
		c1.2,0,1.4,0.4,1.3,1.5c-0.1,3.7,0,7.4-0.1,11c0,0.6,0.7,1.7-0.8,1.9C169.4,102.1,169.2,101.3,169.3,99.8z"/>
	<path class="st11" d="M146.8,99.9c3,0,5.7,0,8.3,0c0.8,0,1.6-0.2,1.5,1.1c0,1.3-0.9,0.9-1.5,0.9c-3.3,0-6.6,0-10,0
		c-0.5,0-1.3,0.3-1.5-0.4c-0.2-0.7-0.1-1.4,0.5-2c2.3-2.5,4.5-5,6.7-7.6c0.6-0.7,1.1-1.3,1.9-2.1c-1.7-0.4-3.2-0.2-4.7-0.2
		c-0.9,0-1.8,0-2.6,0c-0.7,0-1.1-0.1-1.1-1c0-0.9,0.4-1,1.1-1c3.1,0,6.2,0,9.3,0c0.5,0,1.2-0.3,1.5,0.4c0.2,0.7,0,1.3-0.5,1.8
		c-2.5,2.8-5,5.7-7.5,8.5C147.8,98.7,147.5,99.1,146.8,99.9z"/>
	<path class="st11" d="M225,66c0-1.8-0.1-3.5,0-5.3c0.1-1.1-0.3-1.5-1.4-1.4c-0.4,0-1.2,0.3-1.3-0.4c0-0.8,0.8-0.5,1.2-0.5
		c1.7,0.3,1.4-0.9,1.4-1.9c0-2.6,1.1-3.8,3.5-3.7c0.5,0,1.1,0,1.2,0.5c0,0.7-0.7,0.4-1.1,0.4c-1.9,0.1-3.3,2.7-2.2,4.4
		c0.2,0.4,0.6,0.3,1,0.3c1.3,0,2.6,0,3.9,0c0.9,0,1.1-0.3,1-1.1c0-0.9,0-1.8,0-2.6c0-0.3,0.1-0.6,0.5-0.6c0.4,0,0.7,0.2,0.7,0.6
		c0,0.8,0.1,1.6,0,2.3c-0.1,1.1,0.2,1.5,1.4,1.4c0.6,0,1.8-0.5,1.8,0.4c0,0.9-1.2,0.4-1.8,0.4c-0.9,0-1.4,0.2-1.4,1.3
		c0.1,3,0,5.9,0,8.9c0,1.5,0.7,2.3,2.2,2.3c0.4,0,1-0.1,0.9,0.5c0,0.6-0.6,0.4-1,0.4c-2.1,0.1-3.3-1-3.4-3.1c0-3,0-6,0-9
		c0-0.9-0.3-1.3-1.2-1.2c-1.5,0.2-3.5-0.6-4.5,0.3c-0.9,0.8-0.2,2.8-0.3,4.2c0,2.5,0,5,0,7.5c0,0.5,0.3,1.3-0.6,1.3
		c-1,0.1-0.6-0.8-0.6-1.3C224.9,69.6,225,67.8,225,66z"/>
	<path class="st11" d="M199.5,73.1c-1.6,0-3-0.3-4.2-1c-1.2-0.7-1.9-1.7-2.1-3.1c-0.1-0.3-0.2-0.8,0.3-0.9c0.4-0.1,0.6,0.1,0.8,0.5
		c1.6,3.3,4.3,4.4,7.7,3.2c1.2-0.4,2.1-1.1,2.1-2.6c0-1.4-0.8-2.2-2.1-2.6c-1.5-0.4-3-0.7-4.5-1c-2.8-0.7-4.1-2-4-4
		c0.1-1.9,1.8-3.2,4.5-3.4c1.3-0.1,2.6,0,3.8,0.4c1.5,0.5,2.5,1.6,2.8,3.2c0.1,0.3,0.2,0.7-0.3,0.8c-0.4,0.1-0.8,0.1-0.9-0.4
		c-0.2-1.4-0.9-2.3-2.2-2.7c-1.6-0.5-3.2-0.5-4.7,0c-1.1,0.4-1.9,1.1-1.9,2.4c0,1.2,0.7,1.9,1.8,2.2c2.1,0.6,4.2,1,6.3,1.6
		c1.5,0.5,2.4,1.6,2.5,3.2c0.1,1.5-0.8,2.8-2.4,3.5c-0.3,0.1-0.6,0.2-0.9,0.3C201.1,72.9,200.2,73.1,199.5,73.1z"/>
	<path class="st11" d="M178.2,90.2c1.3-1.7,2.6-2.8,4.4-3c0.6-0.1,1.3-0.2,1.2,0.7c-0.1,0.6,0.5,1.5-0.8,1.8
		c-3.5,0.6-4.7,2.1-4.7,5.6c0,1.8-0.1,3.5,0,5.3c0,1-0.3,1.2-1.2,1.2c-1,0-1.4-0.2-1.4-1.3c0.1-3.9,0-7.9,0-11.8
		c0-0.9,0.2-1.3,1.2-1.3c1,0,1.2,0.4,1.2,1.3C178,89.1,178.1,89.5,178.2,90.2z"/>
	<path class="st11" d="M214.3,58.1c4.1,0,7,3.1,7,7.5c0,4.4-2.9,7.5-7.1,7.4c-4.1,0-7-3.2-7-7.5C207.2,61.2,210.1,58.1,214.3,58.1z
		 M220,65.6c0-1.9-0.5-3.7-2-5.1c-1.7-1.6-4.3-2-6.4-0.9c-2.7,1.4-3.4,3.8-3.3,6.7c0.1,2.6,1.7,4.8,3.8,5.5
		C216.4,73.2,220,70.3,220,65.6z"/>
	<path class="st11" d="M183.7,73.1c-4.1,0-7-3.1-7-7.5c0-4.4,2.9-7.5,7-7.5c4.1,0,7,3.1,7,7.5C190.7,69.9,187.8,73.1,183.7,73.1z
		 M177.9,65.6c0,2,0.7,3.8,1.9,4.9c1.7,1.6,4.3,2.1,6.4,1c2.7-1.3,3.5-3.7,3.4-6.5c-0.1-2.7-1.6-5-3.8-5.8
		C181.6,57.9,177.9,60.9,177.9,65.6z"/>
	<path class="st11" d="M154.2,65.7c0.1,4.1,2.3,6.5,6.1,6.4c2.4-0.1,4-1.2,4.8-3.5c0.2-0.5,0.3-1.1,1-0.8c0.6,0.3,0.2,0.8,0,1.2
		c-1.5,4.4-8,5.6-11.2,2.1c-2.3-2.4-2.6-6.9-0.8-9.9c1.6-2.6,5-3.8,8.4-2.8c1.8,0.5,3.1,1.6,3.6,3.5c0.1,0.3,0.4,0.7-0.2,0.9
		c-0.4,0.1-0.6,0-0.9-0.4c-1.6-2.9-3.8-3.9-6.7-3.1C155.8,60,154.2,62.4,154.2,65.7z"/>
	<path class="st11" d="M170.5,61.3c1.4-1.9,3.1-2.7,5-2.9c0.4,0,0.9-0.2,0.9,0.5c0,0.6-0.5,0.4-0.8,0.5c-3.7,0.7-5.1,2.4-5.1,6.2
		c0,2,0,4,0,6.1c0,0.4,0.2,1-0.6,1c-0.7,0-0.6-0.6-0.6-1c0-4.1,0-8.2,0-12.3c0-0.4-0.1-1,0.6-1c0.8,0,0.5,0.6,0.6,1
		C170.5,60,170.5,60.5,170.5,61.3z"/>
	<path class="st11" d="M149,65.4c0-2,0-3.9,0-5.9c0-0.5-0.1-1.1,0.7-1.1c0.7,0.1,0.5,0.7,0.5,1.1c0,4,0,8.1,0,12.1
		c0,0.4,0.3,1-0.5,1.1c-0.8,0.1-0.7-0.6-0.7-1.1C149,69.6,149,67.5,149,65.4z"/>
	<path class="st11" d="M150.3,54.5c-0.2,0.5,0.4,1.4-0.7,1.4c-0.9,0-0.6-0.8-0.6-1.3c0-0.5-0.4-1.4,0.6-1.4
		C150.6,53.2,150,54,150.3,54.5z"/>
</g>
</svg>
